# xmcd CD database file
#
# Track frame offsets:
#	150
#	27908
#	38213
#	50100
#	67607
#	74397
#	89749
#	101779
#	118338
#	130850
#	141131
#	153711
#	169482
#	178861
#	185665
#	200009
#	210370
#	225207
#	232439
#	250262
#	259649
#
# Disc length: 3597 seconds
#
# Revision: 0
# Processed by: cddbd v1.5.2PL0 Copyright (c) Steve Scherf et al.
# Submitted via: CDex 1.70beta2
#
DISCID=420e0b15
DTITLE=Johnny Cash - Long Black Veil
DYEAR=2009
DGENRE=Country
TTITLE0=Introduction
TTITLE1=I Walk The Line
TTITLE2=The One On The Right
TTITLE3=(Ghost) Riders In The Sky
TTITLE4=Five Feet High And Rising
TTITLE5=A Boy Named Sue
TTITLE6=Ring Of Fire
TTITLE7=Medley (If I Were A Carpenter - Help Me Make it Through The Night)
TTITLE8=Me And Bobby McGee
TTITLE9=Daddy Sang Bass
TTITLE10=Orange Blossom Special
TTITLE11=Bird On The Wire
TTITLE12=Folsom Prison Blues
TTITLE13=Remember The Alamo
TTITLE14=The Man In Black
TTITLE15=Ira Hayes - Side Of A Hill
TTITLE16=Jackson
TTITLE17=Long Black Veil
TTITLE18=Sunday Mornin' Comin' Down
TTITLE19=Were You There When They Crucified My Lord?
TTITLE20=Quick Dance
EXTD=YEAR: 2009
EXTT0=
EXTT1=
EXTT2=
EXTT3=
EXTT4=
EXTT5=
EXTT6=
EXTT7=
EXTT8=
EXTT9=
EXTT10=
EXTT11=
EXTT12=
EXTT13=
EXTT14=
EXTT15=
EXTT16=
EXTT17=
EXTT18=
EXTT19=
EXTT20=
PLAYORDER=
